<?xml version="1.0" encoding="UTF-8"?>
<svg id="Layer_2" data-name="Layer 2" xmlns="http://www.w3.org/2000/svg" viewBox="0 0 72.16 72.16">
  <g id="Layer_1-2" data-name="Layer 1">
    <g>
      <rect x="0" y="0" width="72.16" height="72.16" rx="36.08" ry="36.08" style="fill: #1d1d1b;"/>
      <g>
        <path d="M36.08,58.27c-1.69,0-3.3-.73-4.41-2.01-.53-.61-1.13-1.27-1.77-1.97-.95-1.05-1.98-2.19-3.02-3.41l-1.64-2.04,3.9-3.13,1.59,1.98c.96,1.12,1.97,2.23,2.88,3.25.66.73,1.27,1.41,1.82,2.04.23.26.5.3.65.3s.42-.04.65-.3c.55-.63,1.17-1.31,1.82-2.04,4.3-4.76,10.79-11.94,10.79-18.78,0-7.31-5.95-13.26-13.26-13.26s-13.26,5.95-13.26,13.26c0,1.99.55,4.16,1.65,6.48l5.26-4.41,3.21,3.83-6.22,5.22c-.93.78-2.14,1.1-3.33.87-1.19-.23-2.19-.97-2.77-2.03-1.86-3.47-2.81-6.82-2.81-9.95,0-10.07,8.19-18.26,18.26-18.26s18.26,8.19,18.26,18.26c0,8.77-7.27,16.81-12.08,22.14-.64.7-1.23,1.36-1.77,1.97-1.11,1.28-2.72,2.01-4.41,2.01Z" style="fill: #13de88;"/>
        <path d="M36.08,41.4c-5.1,0-9.25-4.15-9.25-9.25s4.15-9.25,9.25-9.25,9.25,4.15,9.25,9.25-4.15,9.25-9.25,9.25ZM36.08,27.9c-2.35,0-4.25,1.91-4.25,4.25s1.91,4.25,4.25,4.25,4.25-1.91,4.25-4.25-1.91-4.25-4.25-4.25Z" style="fill: #13de88;"/>
      </g>
    </g>
  </g>
</svg>