<?xml version="1.0"?>
<svg id="Layer_2" data-name="Layer 2" xmlns="http://www.w3.org/2000/svg" viewBox="0 0 252.25 44.38">
  <g id="Layer_1-2" data-name="Layer 1">
    <g>
      <g>
        <path d="M44.89,8.89h3.69v23.14h14.36v3.46h-18.05V8.89Z" style="fill: #1d1d1b;"></path>
        <path d="M64.76,11.17c0-1.37,1.03-2.36,2.39-2.36s2.39.99,2.39,2.36-.99,2.32-2.39,2.32-2.39-.99-2.39-2.32ZM65.37,16.72h3.53v18.77h-3.53v-18.77Z" style="fill: #1d1d1b;"></path>
        <path d="M90.21,16.72l-7.94,18.77h-3.84l-7.94-18.77h3.88l2.77,6.88,3.23,8.24,3.23-8.24,2.85-6.88h3.76Z" style="fill: #1d1d1b;"></path>
        <path d="M108.14,27.51h-15.54c.34,3.23,2.81,5.21,6.42,5.21,2.28,0,4.6-.87,5.7-2.2l2.28,2.17c-1.79,2.05-4.83,3.31-8.06,3.31-6.04,0-9.99-3.91-9.99-9.88s3.88-9.76,9.61-9.76c6.46,0,10.11,4.25,9.57,11.17ZM92.64,24.51h12.16c-.3-3.04-2.62-5.02-6.12-5.02-3.31,0-5.47,1.86-6.04,5.02Z" style="fill: #1d1d1b;"></path>
        <path d="M109.83,22.19c0-8.25,5.81-13.87,14.06-13.87,3.91,0,7.29,1.41,9.99,4.14l-3.38,3.23c-1.75-1.75-3.88-2.62-6.46-2.62-5.28,0-8.89,3.69-8.89,9.12s3.61,9.12,8.89,9.12c2.62,0,5.09-.99,6.92-2.77l3.19,3.5c-2.74,2.7-6.16,4.03-10.18,4.03-8.44,0-14.13-5.7-14.13-13.87Z" style="fill: #1d1d1b;"></path>
        <path d="M134.83,26.1c0-5.74,3.95-9.8,10.14-9.8s10.14,4.07,10.14,9.8-3.95,9.8-10.14,9.8-10.14-4.07-10.14-9.8ZM150.11,26.1c0-3-2.01-5.4-5.13-5.4s-5.13,2.39-5.13,5.4,2.01,5.4,5.13,5.4,5.13-2.39,5.13-5.4Z" style="fill: #1d1d1b;"></path>
        <path d="M175.59,25v10.49h-5.05v-10.18c0-2.89-1.56-4.56-4.06-4.56-2.74,0-4.56,2.01-4.56,4.9v9.84h-5.05v-18.77h4.37l.34,2.17c1.48-1.63,3.69-2.55,6.15-2.55,4.79,0,7.87,3.34,7.87,8.66Z" style="fill: #1d1d1b;"></path>
        <path d="M196.94,25v10.49h-5.05v-10.18c0-2.89-1.56-4.56-4.07-4.56-2.74,0-4.56,2.01-4.56,4.9v9.84h-5.05v-18.77h4.37l.34,2.17c1.48-1.63,3.69-2.55,6.15-2.55,4.79,0,7.87,3.34,7.87,8.66Z" style="fill: #1d1d1b;"></path>
        <path d="M218.01,27.78h-14.48c.34,2.36,2.39,3.91,5.43,3.91,2.01,0,4.03-.68,5.24-1.79l2.81,2.89c-1.98,2.01-4.98,3.19-8.25,3.19-6.34,0-10.37-3.84-10.37-9.84s3.99-9.8,9.88-9.8c6.8,0,10.56,4.48,9.73,11.44ZM203.61,24.43h9.65c-.19-2.43-2.01-3.95-4.83-3.95-2.66,0-4.45,1.44-4.83,3.95Z" style="fill: #1d1d1b;"></path>
        <path d="M219.57,26.1c0-5.85,4.07-9.8,10.11-9.8,2.77,0,5.21.99,7.22,2.93l-2.93,3.15c-1.06-1.06-2.55-1.67-4.1-1.67-3.12,0-5.28,2.2-5.28,5.4s2.13,5.4,5.28,5.4c1.67,0,3.19-.65,4.33-1.82l2.96,3.19c-2.13,2.05-4.52,3.04-7.41,3.04-6.19,0-10.18-3.84-10.18-9.8Z" style="fill: #1d1d1b;"></path>
        <path d="M252.25,34.8c-1.56.72-2.93.99-4.6.99-3.84,0-6.38-2.05-6.38-6.95v-7.98h-3.38v-4.14h3.38v-4.79l5.02-.53v5.32h5.05v4.14h-5.05v7.98c0,1.71.87,2.58,2.39,2.58.72,0,1.6-.23,2.24-.53l1.33,3.91Z" style="fill: #1d1d1b;"></path>
      </g>
      <g>
        <path d="M18.26,44.38c-1.69,0-3.3-.73-4.41-2.01-.53-.61-1.13-1.27-1.77-1.97-.95-1.05-1.98-2.19-3.02-3.41l-1.64-2.04,3.9-3.13,1.59,1.98c.96,1.12,1.97,2.23,2.88,3.25.66.73,1.27,1.41,1.82,2.04.23.26.5.3.65.3s.42-.04.65-.3c.55-.63,1.17-1.31,1.82-2.04,4.3-4.76,10.79-11.94,10.79-18.78,0-7.31-5.95-13.26-13.26-13.26s-13.26,5.95-13.26,13.26c0,1.99.55,4.16,1.65,6.48l5.26-4.41,3.21,3.83-6.22,5.22c-.93.78-2.14,1.1-3.33.87-1.19-.23-2.19-.97-2.77-2.03-1.86-3.47-2.81-6.82-2.81-9.95C0,8.19,8.19,0,18.26,0s18.26,8.19,18.26,18.26c0,8.77-7.27,16.81-12.08,22.14-.64.7-1.23,1.36-1.77,1.97-1.11,1.28-2.72,2.01-4.41,2.01Z" style="fill: #13de88;"></path>
        <path d="M18.26,27.52c-5.1,0-9.25-4.15-9.25-9.25s4.15-9.25,9.25-9.25,9.25,4.15,9.25,9.25-4.15,9.25-9.25,9.25ZM18.26,14.01c-2.35,0-4.25,1.91-4.25,4.25s1.91,4.25,4.25,4.25,4.25-1.91,4.25-4.25-1.91-4.25-4.25-4.25Z" style="fill: #13de88;"></path>
      </g>
    </g>
  </g>
</svg>