<?xml version="1.0"?>
<svg id="Layer_2" data-name="Layer 2" xmlns="http://www.w3.org/2000/svg" viewBox="0 0 231.11 39.55">
  <g id="Layer_1-2" data-name="Layer 1">
    <g>
      <path d="M0,24.81l1.98-2.81c2.13,2.01,5.7,3.31,9.12,3.31,4.26,0,6.99-1.71,6.99-4.37,0-2.43-2.13-3.72-7.26-4.48C3.61,15.39.61,13.07.61,8.51.61,4.22,4.79,1.14,10.75,1.14c3.61,0,7.1,1.25,9.76,3.42l-1.94,2.62c-2.17-1.79-5.02-2.77-7.79-2.77-3.84,0-6.5,1.75-6.5,4.18s1.98,3.65,6.92,4.45c7.64,1.22,10.6,3.34,10.6,7.79,0,4.79-4.22,7.9-10.71,7.9-4.07,0-8.13-1.41-11.09-3.91Z"></path>
      <path d="M24.36,3.91c0-1.37,1.03-2.36,2.39-2.36s2.39.99,2.39,2.36-.99,2.32-2.39,2.32-2.39-.99-2.39-2.32ZM24.97,9.46h3.53v18.77h-3.53V9.46Z"></path>
      <path d="M46.59,25.95c3.19,1.06,4.98,3.19,4.98,6,0,4.6-3.88,7.6-9.84,7.6s-9.92-3.31-9.73-8.17h3.5c-.11,2.93,2.43,4.9,6.23,4.9s6.31-1.71,6.31-4.33-2.39-4.18-6.23-4.18c-6.16,0-10.07-3.61-10.07-9.31,0-5.4,4.22-9.35,9.95-9.35,2.09,0,3.95.46,5.32,1.33l2.43-2.93,2.55,1.98-2.58,3.04c1.67,1.98,2.32,3.69,2.32,5.93,0,3.53-1.86,6.19-5.13,7.48ZM48.18,18.47c0-3.65-2.55-6.08-6.46-6.08s-6.46,2.47-6.46,6.08,2.58,6.08,6.46,6.08,6.46-2.51,6.46-6.08Z"></path>
      <path d="M73.11,17.82v10.41h-3.53v-10.18c0-3.61-1.86-5.66-5.05-5.66-3.42,0-5.81,2.47-5.81,5.85v9.99h-3.53V9.46h3.15l.04,2.62c1.6-1.94,3.95-2.96,6.69-2.96,4.86,0,8.05,3.38,8.05,8.7Z"></path>
      <path d="M95.76,9.46v18.77h-3.12l-.04-2.77c-1.48,1.98-4.07,3.19-7.14,3.19-5.51,0-9.38-4.03-9.38-9.8s3.88-9.8,9.38-9.8c3.08,0,5.66,1.22,7.14,3.19l.04-2.77h3.12ZM92.22,18.85c0-3.84-2.58-6.53-6.31-6.53s-6.31,2.7-6.31,6.53,2.62,6.54,6.31,6.54,6.31-2.7,6.31-6.54Z"></path>
      <path d="M100.28,1.63h3.53v26.6h-3.53V1.63Z"></path>
      <path d="M107.01,25.08l2.74-3.91c2.24,1.82,5.4,2.89,8.59,2.89,3.53,0,5.77-1.33,5.77-3.46,0-2.01-1.86-3.08-6.04-3.57-7.26-.87-10.41-3.31-10.41-8.05s4.33-7.9,10.6-7.9c3.61,0,7.22,1.18,9.95,3.19l-2.58,3.72c-2.13-1.56-4.71-2.39-7.22-2.39-3.31,0-5.59,1.37-5.59,3.31s1.71,2.96,5.85,3.5c7.37.99,10.68,3.5,10.68,8.13,0,4.98-4.41,8.28-11.02,8.28-4.14,0-8.32-1.33-11.32-3.72Z"></path>
      <path d="M130.87,18.85c0-5.85,4.07-9.8,10.11-9.8,2.77,0,5.21.99,7.22,2.93l-2.93,3.15c-1.06-1.06-2.55-1.67-4.1-1.67-3.12,0-5.28,2.2-5.28,5.4s2.13,5.4,5.28,5.4c1.67,0,3.19-.65,4.33-1.82l2.96,3.19c-2.13,2.05-4.52,3.04-7.41,3.04-6.19,0-10.18-3.84-10.18-9.8Z"></path>
      <path d="M149.03,18.85c0-5.74,3.95-9.8,10.14-9.8s10.14,4.07,10.14,9.8-3.95,9.8-10.14,9.8-10.14-4.07-10.14-9.8ZM164.31,18.85c0-3-2.01-5.4-5.13-5.4s-5.13,2.39-5.13,5.4,2.01,5.4,5.13,5.4,5.13-2.39,5.13-5.4Z"></path>
      <path d="M186.92,10.79l-2.2,3.91c-1.06-.72-1.98-.99-3.04-.99-2.77,0-4.56,1.94-4.56,5.36v9.16h-5.05V9.46h4.37l.42,2.36c1.44-1.94,3.23-2.74,5.28-2.74,1.75,0,3.57.57,4.79,1.71Z"></path>
      <path d="M206.22,20.52h-14.48c.34,2.36,2.39,3.91,5.43,3.91,2.01,0,4.03-.68,5.24-1.79l2.81,2.89c-1.98,2.01-4.98,3.19-8.25,3.19-6.34,0-10.37-3.84-10.37-9.84s3.99-9.8,9.88-9.8c6.8,0,10.56,4.48,9.73,11.44ZM191.82,17.17h9.65c-.19-2.43-2.01-3.95-4.83-3.95-2.66,0-4.45,1.44-4.83,3.95Z"></path>
      <path d="M216.77,1.89h-3.97v10.35h-2.05V1.89h-3.97V0h9.98v1.89Z"></path>
      <path d="M231.11,0v12.24h-2.03V3.46l-4.25,5.39h-.44l-4.23-5.37v8.76h-2.05V0h1.85l4.65,5.93,4.65-5.93h1.84Z"></path>
    </g>
  </g>
</svg>