<?xml version="1.0"?>
<svg id="Layer_2" data-name="Layer 2" xmlns="http://www.w3.org/2000/svg" viewBox="0 0 251.91 44.27">
  <g id="Layer_1-2" data-name="Layer 1">
    <g>
      <g>
        <path d="M44.54,7.71h3.69v23.14h14.36v3.46h-18.05V7.71Z"></path>
        <path d="M64.41,9.99c0-1.37,1.03-2.36,2.39-2.36s2.39.99,2.39,2.36-.99,2.32-2.39,2.32-2.39-.99-2.39-2.32ZM65.02,15.53h3.53v18.77h-3.53V15.53Z"></path>
        <path d="M89.86,15.53l-7.94,18.77h-3.84l-7.94-18.77h3.88l2.77,6.88,3.23,8.24,3.23-8.24,2.85-6.88h3.76Z"></path>
        <path d="M107.79,26.32h-15.54c.34,3.23,2.81,5.21,6.42,5.21,2.28,0,4.6-.87,5.7-2.2l2.28,2.17c-1.79,2.05-4.83,3.31-8.06,3.31-6.04,0-9.99-3.91-9.99-9.88s3.88-9.76,9.61-9.76c6.46,0,10.11,4.25,9.57,11.17ZM92.29,23.32h12.16c-.3-3.04-2.62-5.02-6.12-5.02-3.31,0-5.47,1.86-6.04,5.02Z"></path>
        <path d="M109.48,21c0-8.25,5.81-13.87,14.06-13.87,3.91,0,7.29,1.41,9.99,4.14l-3.38,3.23c-1.75-1.75-3.88-2.62-6.46-2.62-5.28,0-8.89,3.69-8.89,9.12s3.61,9.12,8.89,9.12c2.62,0,5.09-.99,6.92-2.77l3.19,3.5c-2.74,2.7-6.16,4.03-10.18,4.03-8.44,0-14.13-5.7-14.13-13.87Z"></path>
        <path d="M134.49,24.92c0-5.74,3.95-9.8,10.14-9.8s10.14,4.07,10.14,9.8-3.95,9.8-10.14,9.8-10.14-4.07-10.14-9.8ZM149.76,24.92c0-3-2.01-5.4-5.13-5.4s-5.13,2.39-5.13,5.4,2.01,5.4,5.13,5.4,5.13-2.39,5.13-5.4Z"></path>
        <path d="M175.25,23.82v10.49h-5.05v-10.18c0-2.89-1.56-4.56-4.06-4.56-2.74,0-4.56,2.01-4.56,4.9v9.84h-5.05V15.53h4.37l.34,2.17c1.48-1.63,3.69-2.55,6.15-2.55,4.79,0,7.87,3.34,7.87,8.66Z"></path>
        <path d="M196.59,23.82v10.49h-5.05v-10.18c0-2.89-1.56-4.56-4.07-4.56-2.74,0-4.56,2.01-4.56,4.9v9.84h-5.05V15.53h4.37l.34,2.17c1.48-1.63,3.69-2.55,6.15-2.55,4.79,0,7.87,3.34,7.87,8.66Z"></path>
        <path d="M217.67,26.59h-14.48c.34,2.36,2.39,3.91,5.43,3.91,2.01,0,4.03-.68,5.24-1.79l2.81,2.89c-1.98,2.01-4.98,3.19-8.25,3.19-6.34,0-10.37-3.84-10.37-9.84s3.99-9.8,9.88-9.8c6.8,0,10.56,4.48,9.73,11.44ZM203.27,23.25h9.65c-.19-2.43-2.01-3.95-4.83-3.95-2.66,0-4.45,1.44-4.83,3.95Z"></path>
        <path d="M219.23,24.92c0-5.85,4.07-9.8,10.11-9.8,2.77,0,5.21.99,7.22,2.93l-2.93,3.15c-1.06-1.06-2.55-1.67-4.1-1.67-3.12,0-5.28,2.2-5.28,5.4s2.13,5.4,5.28,5.4c1.67,0,3.19-.65,4.33-1.82l2.96,3.19c-2.13,2.05-4.52,3.04-7.41,3.04-6.19,0-10.18-3.84-10.18-9.8Z"></path>
        <path d="M251.91,33.62c-1.56.72-2.93.99-4.6.99-3.84,0-6.38-2.05-6.38-6.95v-7.98h-3.38v-4.14h3.38v-4.79l5.02-.53v5.32h5.05v4.14h-5.05v7.98c0,1.71.87,2.58,2.39,2.58.72,0,1.6-.23,2.24-.53l1.33,3.91Z"></path>
      </g>
      <path d="M18.17,0C9.4.05,1.89,6.61.28,15.23c-.86,4.59.22,9.27,3.38,14.5.44.73,1.18,1.23,2.02,1.37.84.14,1.7-.1,2.35-.64l5.12-4.3c1.81,1.18,4.05,1.76,6.44,1.43,4.02-.56,7.3-3.75,7.95-7.75,1.04-6.41-4.46-11.89-10.87-10.83-3.96.65-7.13,3.89-7.71,7.86-.27,1.81,0,3.55.64,5.08l-2.67,2.24c-.96-2.12-1.44-4.07-1.44-5.91,0-7.04,5.73-12.76,12.76-12.76s12.76,5.73,12.76,12.76c0,6.62-6.35,13.65-10.55,18.29-.65.72-1.25,1.39-1.79,2.01-.23.26-.61.27-.84,0-.61-.7-1.55-1.86-2.54-3.09-.64-.79-1.3-1.61-1.92-2.37s-1.65-.81-2.35-.2l-1.67,1.43c-.68.58-.77,1.61-.2,2.3.6.73,1.24,1.52,1.86,2.29,1.01,1.25,1.97,2.44,2.65,3.22.5.57,1.08,1.08,1.76,1.42,2.64,1.34,5.63.64,7.4-1.39.52-.6,1.11-1.25,1.74-1.94,4.77-5.27,11.97-13.24,11.97-21.99C36.54,8.16,28.29-.05,18.17,0ZM18.27,14.37c2.15,0,3.9,1.75,3.9,3.9s-1.75,3.9-3.9,3.9-3.9-1.75-3.9-3.9,1.75-3.9,3.9-3.9Z"></path>
    </g>
  </g>
</svg>