<?xml version="1.0"?>
<svg id="Layer_2" data-name="Layer 2" xmlns="http://www.w3.org/2000/svg" xmlns:xlink="http://www.w3.org/1999/xlink" viewBox="0 0 849.56 158.27">
  <defs>
    <linearGradient id="linear-gradient" x1="5219" y1="-11147.36" x2="5457.88" y2="-11147.36" gradientTransform="translate(5621.2582 -11087.9383) rotate(-180)" gradientUnits="userSpaceOnUse">
      <stop offset=".1" stop-color="#fff" stop-opacity="0"></stop>
      <stop offset=".75" stop-color="#fff" stop-opacity=".48"></stop>
      <stop offset="1" stop-color="#fff"></stop>
    </linearGradient>
  </defs>
  <g id="Layer_1-2" data-name="Layer 1">
    <g>
      <path d="M145.48,102.85c0,33.15-27.84,55.42-69.27,55.42-28.4,0-54.77-9.72-74.24-27.36l-1.97-1.78,31.59-37.72,2.11,1.77c15.72,13.17,32.24,20.13,47.75,20.13,3.66,0,7.94-.98,7.94-3.75,0-2.6-1.92-3.87-22.34-11.47-26.52-9.79-41.87-20.12-41.87-43.92C25.19,22.78,54.15,0,94.04,0c26.26,0,50.15,8.06,67.26,22.69l2.07,1.77-31.61,37.75-2.11-1.71c-12.16-9.86-27.35-15.75-40.65-15.75-2.39,0-7.94.3-7.94,3.12,0,2.05,2.23,3.01,17.77,8.76l3.93,1.46c25.64,9.48,42.72,20.72,42.72,44.76Z" style="fill: #fff;"></path>
      <polygon points="481.03 2.94 440.1 155.33 494.91 155.33 535.84 2.94 481.03 2.94" style="fill: #fff;"></polygon>
      <polygon points="645.85 2.94 628.36 67.85 597.46 2.94 547.65 2.94 506.73 155.33 561.11 155.33 579.44 87.47 611.82 155.33 659.31 155.33 700.24 2.94 645.85 2.94" style="fill: #fff;"></polygon>
      <polygon points="708.3 2.94 695.7 50 738.92 50 710.6 155.33 765.41 155.33 793.73 50 836.96 50 849.56 2.94 708.3 2.94" style="fill: #fff;"></polygon>
      <path d="M169.91,47.24h220.17c6.73,0,12.19,5.46,12.19,12.19s-5.46,12.19-12.19,12.19h-226.7" style="fill: url(#linear-gradient);"></path>
      <path d="M450.73,52.07c0-13.24-4.27-24.51-12.35-32.59-10.98-10.98-29.85-16.54-56.09-16.54h-59.4l-11.9,44.3h79.08c6.73,0,12.19,5.46,12.19,12.19s-5.46,12.19-12.19,12.19h-85.62l-22.48,83.72h54.81l11.33-41.97h8.17l16.37,41.97h58.9l-20.8-49.96c25.82-9.03,39.99-27.86,39.99-53.3Z" style="fill: #fff;"></path>
      <g>
        <path d="M301.78,47.24c-.85-10.79-5.01-20.17-12.18-27.34-11.73-11.73-29.16-16.97-56.51-16.97h-51.42l-11.9,44.3h132.01Z" style="fill: #fff;"></path>
        <path d="M163.22,71.61l-22.48,83.72h54.81l10.7-39.87h18.66c23.27,0,42.77-6.06,56.38-17.51,8.42-7.09,14.37-16.01,17.65-26.34h-135.72Z" style="fill: #fff;"></path>
      </g>
    </g>
  </g>
</svg>